<?xml version="1.0" encoding="UTF-8" standalone="no"?>
<!DOCTYPE svg PUBLIC "-//W3C//DTD SVG 1.1//EN" "http://www.w3.org/Graphics/SVG/1.1/DTD/svg11.dtd">
<svg xmlns="http://www.w3.org/2000/svg" xmlns:xl="http://www.w3.org/1999/xlink" xmlns:dc="http://purl.org/dc/elements/1.1/" version="1.1" viewBox="-2844.5 213.25 433 451" width="433" height="451">
  <defs>
    <linearGradient x1="0" x2="1" id="Gradient" gradientUnits="userSpaceOnUse">
      <stop offset="0" stop-color="#181a19"/>
      <stop offset=".9079928" stop-color="#262726"/>
      <stop offset="1" stop-color="#333"/>
    </linearGradient>
    <linearGradient id="Obj_Gradient" xl:href="#Gradient" gradientTransform="translate(-2628 663.75) rotate(-90) scale(450)"/>
  </defs>
  <g id="Canvas_1" stroke-opacity="1" fill-opacity="1" stroke-dasharray="none" fill="none" stroke="none">
    <title>Canvas 1</title>
    <g id="Canvas_1_Layer_1">
      <title>Layer 1</title>
      <g id="Group_740">
        <g id="Graphic_162">
          <path d="M -2829 213.75 L -2427 213.75 C -2418.7157 213.75 -2412 220.46573 -2412 228.75 L -2412 648.75 C -2412 657.0343 -2418.7157 663.75 -2427 663.75 L -2829 663.75 C -2837.2843 663.75 -2844 657.0343 -2844 648.75 L -2844 228.75 C -2844 220.46573 -2837.2843 213.75 -2829 213.75 Z" fill="url(#Obj_Gradient)"/>
          <path d="M -2829 213.75 L -2427 213.75 C -2418.7157 213.75 -2412 220.46573 -2412 228.75 L -2412 648.75 C -2412 657.0343 -2418.7157 663.75 -2427 663.75 L -2829 663.75 C -2837.2843 663.75 -2844 657.0343 -2844 648.75 L -2844 228.75 C -2844 220.46573 -2837.2843 213.75 -2829 213.75 Z" stroke="black" stroke-linecap="round" stroke-linejoin="round" stroke-width="1"/>
        </g>
        <g id="Graphic_163">
          <text transform="translate(-2705.918 227.68017)" fill="#a9ec9f">
            <tspan font-family="Roboto, Arial, Helvetica" font-weight="bold" font-size="24" fill="#a9ec9f" x="0" y="22" xml:space="preserve">ƒ</tspan>
            <tspan font-family="Roboto, Arial, Helvetica" font-size="24" fill="#7f7f7f" y="22" xml:space="preserve"> </tspan>
            <tspan font-family="Roboto, Arial, Helvetica" font-size="24" fill="#7fb276" y="22" xml:space="preserve">Clock Divider</tspan>
          </text>
        </g>
        <g id="Graphic_164">
          <text transform="translate(-2488.2555 283.7899)" fill="white">
            <tspan font-family="Roboto, Arial, Helvetica" font-size="24" fill="white" x="0" y="22" xml:space="preserve">1</tspan>
          </text>
        </g>
        <g id="Graphic_165">
          <text transform="translate(-2779.6825 283.7899)" fill="white">
            <tspan font-family="Roboto, Arial, Helvetica" font-size="24" fill="white" x="0" y="22" xml:space="preserve">Trigger</tspan>
          </text>
        </g>
        <g id="Graphic_172">
          <text transform="translate(-2488.2555 330.61035)" fill="white">
            <tspan font-family="Roboto, Arial, Helvetica" font-size="24" fill="white" x="0" y="22" xml:space="preserve">2</tspan>
          </text>
        </g>
        <g id="Graphic_176">
          <text transform="translate(-2488.2555 381.5455)" fill="white">
            <tspan font-family="Roboto, Arial, Helvetica" font-size="24" fill="white" x="0" y="22" xml:space="preserve">3</tspan>
          </text>
        </g>
        <g id="Graphic_180">
          <text transform="translate(-2488.2555 428.36596)" fill="white">
            <tspan font-family="Roboto, Arial, Helvetica" font-size="24" fill="white" x="0" y="22" xml:space="preserve">4</tspan>
          </text>
        </g>
        <g id="Graphic_184">
          <text transform="translate(-2488.2555 475.68516)" fill="white">
            <tspan font-family="Roboto, Arial, Helvetica" font-size="24" fill="white" x="0" y="22" xml:space="preserve">5</tspan>
          </text>
        </g>
        <g id="Graphic_188">
          <text transform="translate(-2488.2555 522.5056)" fill="white">
            <tspan font-family="Roboto, Arial, Helvetica" font-size="24" fill="white" x="0" y="22" xml:space="preserve">6</tspan>
          </text>
        </g>
        <g id="Graphic_192">
          <text transform="translate(-2488.2555 573.4408)" fill="white">
            <tspan font-family="Roboto, Arial, Helvetica" font-size="24" fill="white" x="0" y="22" xml:space="preserve">7</tspan>
          </text>
        </g>
        <g id="Graphic_196">
          <text transform="translate(-2488.2555 620.2612)" fill="white">
            <tspan font-family="Roboto, Arial, Helvetica" font-size="24" fill="white" x="0" y="22" xml:space="preserve">8</tspan>
          </text>
        </g>
        <g id="Group_200">
          <title>Trigger</title>
          <g id="Graphic_202">
            <ellipse cx="-2808.7574" cy="344.61035" rx="11.6606870130667" ry="11.7830612221608" fill="black"/>
            <ellipse cx="-2808.7574" cy="344.61035" rx="11.6606870130667" ry="11.7830612221608" stroke="white" stroke-linecap="round" stroke-linejoin="round" stroke-width="3"/>
          </g>
          <g id="Graphic_201">
            <path d="M -2797.0967 355.98415 C -2795.037 357.04926 -2792.7444 356.0353 -2791.1273 352.9422 C -2788.7215 348.34064 -2788.7215 340.88004 -2791.1273 336.2785 C -2792.7444 333.1854 -2795.0368 332.17143 -2797.0967 333.23653 C -2796.092 333.756 -2795.1428 334.76998 -2794.354 336.2785 C -2791.9484 340.88004 -2791.9484 348.34064 -2794.354 352.9422 C -2795.1428 354.4507 -2796.092 355.4647 -2797.0967 355.98416 Z" fill="white"/>
          </g>
        </g>
        <g id="Graphic_203">
          <text transform="translate(-2777.8452 330.61036)" fill="white">
            <tspan font-family="Roboto, Arial, Helvetica" font-size="24" fill="white" x="0" y="22" xml:space="preserve">Reset</tspan>
          </text>
        </g>
        <g id="Group_207">
          <title>Trigger</title>
          <g id="Graphic_209">
            <ellipse cx="-2809.6697" cy="297.7899" rx="11.6606870130667" ry="11.7830612221608" fill="black"/>
            <ellipse cx="-2809.6697" cy="297.7899" rx="11.6606870130667" ry="11.7830612221608" stroke="white" stroke-linecap="round" stroke-linejoin="round" stroke-width="3"/>
          </g>
          <g id="Graphic_208">
            <path d="M -2798.009 309.1637 C -2795.949 310.2288 -2793.6566 309.21483 -2792.0395 306.12175 C -2789.6338 301.5202 -2789.6338 294.0596 -2792.0395 289.45803 C -2793.6566 286.36496 -2795.949 285.35098 -2798.009 286.41608 C -2797.0044 286.93554 -2796.055 287.94953 -2795.2664 289.45803 C -2792.8606 294.0596 -2792.8606 301.5202 -2795.2664 306.12175 C -2796.055 307.63027 -2797.0044 308.64425 -2798.009 309.1637 Z" fill="white"/>
          </g>
        </g>
        <g id="Group_216">
          <title>Trigger</title>
          <g id="Graphic_218">
            <ellipse cx="-2451.4242" cy="297.7899" rx="11.6606870130667" ry="11.7830612221608" fill="black"/>
            <ellipse cx="-2451.4242" cy="297.7899" rx="11.6606870130667" ry="11.7830612221608" stroke="white" stroke-linecap="round" stroke-linejoin="round" stroke-width="3"/>
          </g>
          <g id="Graphic_217">
            <path d="M -2439.7635 309.1637 C -2437.7036 310.2288 -2435.4111 309.21483 -2433.794 306.12175 C -2431.3883 301.5202 -2431.3883 294.0596 -2433.794 289.45803 C -2435.411 286.36496 -2437.7036 285.35098 -2439.7635 286.41608 C -2438.759 286.93554 -2437.8096 287.94953 -2437.021 289.45803 C -2434.615 294.0596 -2434.615 301.5202 -2437.021 306.12175 C -2437.8096 307.63027 -2438.759 308.64425 -2439.7635 309.1637 Z" fill="white"/>
          </g>
        </g>
        <g id="Group_258">
          <title>Trigger</title>
          <g id="Graphic_260">
            <ellipse cx="-2451.4242" cy="344.61036" rx="11.6606870130667" ry="11.7830612221608" fill="black"/>
            <ellipse cx="-2451.4242" cy="344.61036" rx="11.6606870130667" ry="11.7830612221608" stroke="white" stroke-linecap="round" stroke-linejoin="round" stroke-width="3"/>
          </g>
          <g id="Graphic_259">
            <path d="M -2439.7635 355.98416 C -2437.7036 357.04928 -2435.4111 356.0353 -2433.794 352.9422 C -2431.3883 348.34065 -2431.3883 340.88006 -2433.794 336.2785 C -2435.411 333.18542 -2437.7036 332.17144 -2439.7635 333.23654 C -2438.759 333.756 -2437.8096 334.77 -2437.021 336.2785 C -2434.615 340.88006 -2434.615 348.34065 -2437.021 352.9422 C -2437.8096 354.45073 -2438.759 355.4647 -2439.7635 355.98417 Z" fill="white"/>
          </g>
        </g>
        <g id="Group_255">
          <title>Trigger</title>
          <g id="Graphic_257">
            <ellipse cx="-2451.4242" cy="395.5455" rx="11.6606870130667" ry="11.7830612221608" fill="black"/>
            <ellipse cx="-2451.4242" cy="395.5455" rx="11.6606870130667" ry="11.7830612221608" stroke="white" stroke-linecap="round" stroke-linejoin="round" stroke-width="3"/>
          </g>
          <g id="Graphic_256">
            <path d="M -2439.7635 406.9193 C -2437.7036 407.98443 -2435.4111 406.97044 -2433.794 403.87737 C -2431.3883 399.2758 -2431.3883 391.8152 -2433.794 387.21365 C -2435.411 384.12057 -2437.7036 383.1066 -2439.7635 384.1717 C -2438.759 384.69116 -2437.8096 385.70514 -2437.021 387.21365 C -2434.615 391.8152 -2434.615 399.2758 -2437.021 403.87737 C -2437.8096 405.3859 -2438.759 406.39986 -2439.7635 406.9193 Z" fill="white"/>
          </g>
        </g>
        <g id="Group_252">
          <title>Trigger</title>
          <g id="Graphic_254">
            <ellipse cx="-2451.4242" cy="442.36597" rx="11.6606870130667" ry="11.7830612221607" fill="black"/>
            <ellipse cx="-2451.4242" cy="442.36597" rx="11.6606870130667" ry="11.7830612221607" stroke="white" stroke-linecap="round" stroke-linejoin="round" stroke-width="3"/>
          </g>
          <g id="Graphic_253">
            <path d="M -2439.7635 453.7398 C -2437.7036 454.8049 -2435.4111 453.7909 -2433.794 450.6978 C -2431.3883 446.09627 -2431.3883 438.63567 -2433.794 434.0341 C -2435.411 430.94103 -2437.7036 429.92705 -2439.7635 430.99215 C -2438.759 431.5116 -2437.8096 432.5256 -2437.021 434.0341 C -2434.615 438.63567 -2434.615 446.09627 -2437.021 450.6978 C -2437.8096 452.20634 -2438.759 453.2203 -2439.7635 453.7398 Z" fill="white"/>
          </g>
        </g>
        <g id="Group_249">
          <title>Trigger</title>
          <g id="Graphic_251">
            <ellipse cx="-2451.4242" cy="489.6852" rx="11.6606870130667" ry="11.7830612221608" fill="black"/>
            <ellipse cx="-2451.4242" cy="489.6852" rx="11.6606870130667" ry="11.7830612221608" stroke="white" stroke-linecap="round" stroke-linejoin="round" stroke-width="3"/>
          </g>
          <g id="Graphic_250">
            <path d="M -2439.7635 501.059 C -2437.7036 502.1241 -2435.4111 501.1101 -2433.794 498.017 C -2431.3883 493.41547 -2431.3883 485.95487 -2433.794 481.3533 C -2435.411 478.26024 -2437.7036 477.24625 -2439.7635 478.31135 C -2438.759 478.8308 -2437.8096 479.8448 -2437.021 481.3533 C -2434.615 485.95487 -2434.615 493.41547 -2437.021 498.017 C -2437.8096 499.52554 -2438.759 500.5395 -2439.7635 501.059 Z" fill="white"/>
          </g>
        </g>
        <g id="Group_246">
          <title>Trigger</title>
          <g id="Graphic_248">
            <ellipse cx="-2451.4242" cy="536.5056" rx="11.6606870130667" ry="11.7830612221607" fill="black"/>
            <ellipse cx="-2451.4242" cy="536.5056" rx="11.6606870130667" ry="11.7830612221607" stroke="white" stroke-linecap="round" stroke-linejoin="round" stroke-width="3"/>
          </g>
          <g id="Graphic_247">
            <path d="M -2439.7635 547.8794 C -2437.7036 548.9445 -2435.4111 547.93054 -2433.794 544.83747 C -2431.3883 540.2359 -2431.3883 532.7753 -2433.794 528.17375 C -2435.411 525.0807 -2437.7036 524.0667 -2439.7635 525.1318 C -2438.759 525.65126 -2437.8096 526.66524 -2437.021 528.17375 C -2434.615 532.7753 -2434.615 540.2359 -2437.021 544.83747 C -2437.8096 546.346 -2438.759 547.35996 -2439.7635 547.8794 Z" fill="white"/>
          </g>
        </g>
        <g id="Group_243">
          <title>Trigger</title>
          <g id="Graphic_245">
            <ellipse cx="-2451.4242" cy="587.4408" rx="11.6606870130667" ry="11.7830612221607" fill="black"/>
            <ellipse cx="-2451.4242" cy="587.4408" rx="11.6606870130667" ry="11.7830612221607" stroke="white" stroke-linecap="round" stroke-linejoin="round" stroke-width="3"/>
          </g>
          <g id="Graphic_244">
            <path d="M -2439.7635 598.8146 C -2437.7036 599.8797 -2435.4111 598.8657 -2433.794 595.77264 C -2431.3883 591.1711 -2431.3883 583.7105 -2433.794 579.1089 C -2435.411 576.01585 -2437.7036 575.00186 -2439.7635 576.06696 C -2438.759 576.5864 -2437.8096 577.6004 -2437.021 579.1089 C -2434.615 583.7105 -2434.615 591.1711 -2437.021 595.77264 C -2437.8096 597.28115 -2438.759 598.29514 -2439.7635 598.8146 Z" fill="white"/>
          </g>
        </g>
        <g id="Group_240">
          <title>Trigger</title>
          <g id="Graphic_242">
            <ellipse cx="-2451.4242" cy="634.2612" rx="11.6606870130667" ry="11.7830612221608" fill="black"/>
            <ellipse cx="-2451.4242" cy="634.2612" rx="11.6606870130667" ry="11.7830612221608" stroke="white" stroke-linecap="round" stroke-linejoin="round" stroke-width="3"/>
          </g>
          <g id="Graphic_241">
            <path d="M -2439.7635 645.635 C -2437.7036 646.70015 -2435.4111 645.6862 -2433.794 642.5931 C -2431.3883 637.9915 -2431.3883 630.5309 -2433.794 625.9294 C -2435.411 622.8363 -2437.7036 621.8223 -2439.7635 622.8874 C -2438.759 623.4069 -2437.8096 624.42086 -2437.021 625.9294 C -2434.615 630.5309 -2434.615 637.9915 -2437.021 642.5931 C -2437.8096 644.1016 -2438.759 645.1156 -2439.7635 645.63504 Z" fill="white"/>
          </g>
        </g>
      </g>
    </g>
  </g>
</svg>
