<?xml version="1.0" encoding="UTF-8" standalone="no"?>
<!DOCTYPE svg PUBLIC "-//W3C//DTD SVG 1.1//EN" "http://www.w3.org/Graphics/SVG/1.1/DTD/svg11.dtd">
<svg version="1.1" xmlns="http://www.w3.org/2000/svg" xmlns:xl="http://www.w3.org/1999/xlink" xmlns:dc="http://purl.org/dc/elements/1.1/" viewBox="-2840 740.0417 433 271" width="433" height="271">
  <defs>
    <linearGradient x1="0" x2="1" id="Gradient" gradientUnits="userSpaceOnUse">
      <stop offset="0" stop-color="#181a19"/>
      <stop offset=".9079928" stop-color="#262726"/>
      <stop offset="1" stop-color="#333"/>
    </linearGradient>
    <linearGradient id="Obj_Gradient" xl:href="#Gradient" gradientTransform="translate(-2623.5 1010.5417) rotate(-90) scale(270)"/>
  </defs>
  <g id="Canvas_1" fill-opacity="1" stroke-dasharray="none" stroke="none" fill="none" stroke-opacity="1">
    <title>Canvas 1</title>
    <g id="Canvas_1_Layer_18">
      <title>Layer 18</title>
      <g id="Group_1023">
        <g id="Graphic_979">
          <path d="M -2824.5 740.5417 L -2422.5 740.5417 C -2414.2157 740.5417 -2407.5 747.2574 -2407.5 755.5417 L -2407.5 995.5417 C -2407.5 1003.8259 -2414.2157 1010.5417 -2422.5 1010.5417 L -2824.5 1010.5417 C -2832.7843 1010.5417 -2839.5 1003.8259 -2839.5 995.5417 L -2839.5 755.5417 C -2839.5 747.2574 -2832.7843 740.5417 -2824.5 740.5417 Z" fill="url(#Obj_Gradient)"/>
          <path d="M -2824.5 740.5417 L -2422.5 740.5417 C -2414.2157 740.5417 -2407.5 747.2574 -2407.5 755.5417 L -2407.5 995.5417 C -2407.5 1003.8259 -2414.2157 1010.5417 -2422.5 1010.5417 L -2824.5 1010.5417 C -2832.7843 1010.5417 -2839.5 1003.8259 -2839.5 995.5417 L -2839.5 755.5417 C -2839.5 747.2574 -2832.7843 740.5417 -2824.5 740.5417 Z" stroke="black" stroke-linecap="round" stroke-linejoin="round" stroke-width="1"/>
        </g>
        <g id="Graphic_978">
          <text transform="translate(-2713.804 754.196)" fill="#a9ec9f">
            <tspan font-family="Roboto, Arial, sans-serif" font-weight="bold" font-size="24" fill="#a9ec9f" x="0" y="22" xml:space="preserve">ƒ</tspan>
            <tspan font-family="Roboto, Arial, sans-serif" font-size="24" fill="#7f7f7f" y="22" xml:space="preserve"> </tspan>
            <tspan font-family="Roboto, Arial, sans-serif" font-size="24" fill="#7fb276" y="22" xml:space="preserve">Dust (Trigger)</tspan>
          </text>
        </g>
        <g id="Group_975">
          <title>Bool</title>
          <g id="Graphic_977">
            <ellipse cx="-2804.518" cy="823.7515" rx="11.6606870130668" ry="11.6666853088555" fill="black"/>
            <ellipse cx="-2804.518" cy="823.7515" rx="11.6606870130668" ry="11.6666853088555" stroke="#900002" stroke-linecap="round" stroke-linejoin="round" stroke-width="3"/>
          </g>
          <g id="Graphic_976">
            <path d="M -2789.9223 817.2083 L -2783.259 823.7515 L -2789.9223 830.2948 Z" fill="#900002"/>
            <path d="M -2789.9223 817.2083 L -2783.259 823.7515 L -2789.9223 830.2948 Z" stroke="#900002" stroke-linecap="round" stroke-linejoin="round" stroke-width="0"/>
          </g>
        </g>
        <g id="Graphic_971">
          <text transform="translate(-2588.129 809.7515)" fill="white">
            <tspan font-family="Roboto, Arial, sans-serif" font-size="24" fill="white" x="0" y="22" xml:space="preserve">Trigger Out</tspan>
          </text>
        </g>
        <g id="Graphic_970">
          <text transform="translate(-2774.531 809.7515)" fill="white">
            <tspan font-family="Roboto, Arial, sans-serif" font-size="24" fill="white" x="0" y="22" xml:space="preserve">Enabled</tspan>
          </text>
        </g>
        <g id="Graphic_969">
          <path d="M -2675.7685 807.0849 L -2654.4523 807.0849 C -2651.1386 807.0849 -2648.4523 809.7712 -2648.4523 813.0849 L -2648.4523 834.4182 C -2648.4523 837.7319 -2651.1386 840.4182 -2654.4523 840.4182 L -2675.7685 840.4182 C -2679.0822 840.4182 -2681.7685 837.7319 -2681.7685 834.4182 L -2681.7685 813.0849 C -2681.7685 809.7712 -2679.0822 807.0849 -2675.7685 807.0849 Z" fill="black"/>
          <path d="M -2675.7685 807.0849 L -2654.4523 807.0849 C -2651.1386 807.0849 -2648.4523 809.7712 -2648.4523 813.0849 L -2648.4523 834.4182 C -2648.4523 837.7319 -2651.1386 840.4182 -2654.4523 840.4182 L -2675.7685 840.4182 C -2679.0822 840.4182 -2681.7685 837.7319 -2681.7685 834.4182 L -2681.7685 813.0849 C -2681.7685 809.7712 -2679.0822 807.0849 -2675.7685 807.0849 Z" stroke="#363536" stroke-linecap="round" stroke-linejoin="round" stroke-width="2"/>
          <text transform="translate(-2676.7685 809.7515)" fill="#00b0f0">
            <tspan font-family="Lucida Grande" font-size="24" fill="#00b0f0" x="2.4881754" y="23" xml:space="preserve">✓</tspan>
          </text>
        </g>
        <g id="Group_966">
          <title>Bool</title>
          <g id="Graphic_968">
            <ellipse cx="-2805.1697" cy="870.1096" rx="11.6606870130668" ry="11.6666853088555" fill="black"/>
            <ellipse cx="-2805.1697" cy="870.1096" rx="11.6606870130668" ry="11.6666853088555" stroke="#900002" stroke-linecap="round" stroke-linejoin="round" stroke-width="3"/>
          </g>
          <g id="Graphic_967">
            <path d="M -2790.574 863.5664 L -2783.9107 870.1096 L -2790.574 876.6528 Z" fill="#900002"/>
            <path d="M -2790.574 863.5664 L -2783.9107 870.1096 L -2790.574 876.6528 Z" stroke="#900002" stroke-linecap="round" stroke-linejoin="round" stroke-width="0"/>
          </g>
        </g>
        <g id="Graphic_965">
          <text transform="translate(-2775.1825 856.1096)" fill="white">
            <tspan font-family="Roboto, Arial, sans-serif" font-size="24" fill="white" x="0" y="22" xml:space="preserve">Bi-Polar</tspan>
          </text>
        </g>
        <g id="Graphic_964">
          <path d="M -2676.4202 853.4429 L -2655.104 853.4429 C -2651.7903 853.4429 -2649.104 856.1292 -2649.104 859.4429 L -2649.104 880.7762 C -2649.104 884.0899 -2651.7903 886.7762 -2655.104 886.7762 L -2676.4202 886.7762 C -2679.734 886.7762 -2682.4202 884.0899 -2682.4202 880.7762 L -2682.4202 859.4429 C -2682.4202 856.1292 -2679.734 853.4429 -2676.4202 853.4429 Z" fill="black"/>
          <path d="M -2676.4202 853.4429 L -2655.104 853.4429 C -2651.7903 853.4429 -2649.104 856.1292 -2649.104 859.4429 L -2649.104 880.7762 C -2649.104 884.0899 -2651.7903 886.7762 -2655.104 886.7762 L -2676.4202 886.7762 C -2679.734 886.7762 -2682.4202 884.0899 -2682.4202 880.7762 L -2682.4202 859.4429 C -2682.4202 856.1292 -2679.734 853.4429 -2676.4202 853.4429 Z" stroke="#363536" stroke-linecap="round" stroke-linejoin="round" stroke-width="2"/>
          <text transform="translate(-2677.4202 856.1096)" fill="#00b0f0">
            <tspan font-family="Lucida Grande" font-size="24" fill="#00b0f0" x="2.4881754" y="23" xml:space="preserve">✓</tspan>
          </text>
        </g>
        <g id="Group_961">
          <title>Float</title>
          <g id="Graphic_963">
            <ellipse cx="-2805.1697" cy="920.5417" rx="11.6606870130668" ry="11.6666853088555" fill="black"/>
            <ellipse cx="-2805.1697" cy="920.5417" rx="11.6606870130668" ry="11.6666853088555" stroke="#9df945" stroke-linecap="round" stroke-linejoin="round" stroke-width="3"/>
          </g>
          <g id="Graphic_962">
            <path d="M -2790.574 913.9985 L -2783.9107 920.5417 L -2790.574 927.0849 Z" fill="#9df945"/>
            <path d="M -2790.574 913.9985 L -2783.9107 920.5417 L -2790.574 927.0849 Z" stroke="#9df945" stroke-linecap="round" stroke-linejoin="round" stroke-width="0"/>
          </g>
        </g>
        <g id="Graphic_960">
          <text transform="translate(-2771.1992 906.5417)" fill="white">
            <tspan font-family="Roboto, Arial, sans-serif" font-size="24" fill="white" x="0" y="22" xml:space="preserve">Density</tspan>
          </text>
        </g>
        <g id="Graphic_959">
          <path d="M -2678.7685 901.7762 L -2639.2364 901.7762 C -2637.5795 901.7762 -2636.2364 903.1194 -2636.2364 904.7762 L -2636.2364 932.1096 C -2636.2364 933.7664 -2637.5795 935.1096 -2639.2364 935.1096 L -2678.7685 935.1096 C -2680.4254 935.1096 -2681.7685 933.7664 -2681.7685 932.1096 L -2681.7685 904.7762 C -2681.7685 903.1194 -2680.4254 901.7762 -2678.7685 901.7762 Z" fill="black"/>
          <path d="M -2678.7685 901.7762 L -2639.2364 901.7762 C -2637.5795 901.7762 -2636.2364 903.1194 -2636.2364 904.7762 L -2636.2364 932.1096 C -2636.2364 933.7664 -2637.5795 935.1096 -2639.2364 935.1096 L -2678.7685 935.1096 C -2680.4254 935.1096 -2681.7685 933.7664 -2681.7685 932.1096 L -2681.7685 904.7762 C -2681.7685 903.1194 -2680.4254 901.7762 -2678.7685 901.7762 Z" stroke="#d7d5d5" stroke-linecap="round" stroke-linejoin="round" stroke-width="2"/>
          <text transform="translate(-2676.7685 904.4429)" fill="#bfbebf">
            <tspan font-family="Roboto, Arial, sans-serif" font-size="24" fill="#bfbebf" x="1.1313019" y="22" xml:space="preserve">0.0</tspan>
          </text>
        </g>
        <g id="Group_956">
          <title>Audio</title>
          <g id="Graphic_958">
            <ellipse cx="-2805.1697" cy="968.875" rx="11.6606870130668" ry="11.6666853088555" fill="black"/>
            <ellipse cx="-2805.1697" cy="968.875" rx="11.6606870130668" ry="11.6666853088555" stroke="#cd79cb" stroke-linecap="round" stroke-linejoin="round" stroke-width="3"/>
          </g>
          <g id="Graphic_957">
            <path d="M -2790.574 962.3318 L -2783.9107 968.875 L -2790.574 975.4182 Z" fill="#ce78ca"/>
            <path d="M -2790.574 962.3318 L -2783.9107 968.875 L -2790.574 975.4182 Z" stroke="black" stroke-linecap="round" stroke-linejoin="round" stroke-width="0"/>
          </g>
        </g>
        <g id="Graphic_955">
          <text transform="translate(-2771.1992 954.875)" fill="white">
            <tspan font-family="Roboto, Arial, sans-serif" font-size="24" fill="white" x="0" y="22" xml:space="preserve">Modulation</tspan>
          </text>
        </g>
        <g id="Group_1020">
          <title>Trigger</title>
          <g id="Graphic_1022">
            <ellipse cx="-2446.012" cy="823.75155" rx="11.6606870130668" ry="12.1935678711909" fill="black"/>
            <ellipse cx="-2446.012" cy="823.75155" rx="11.6606870130668" ry="12.1935678711909" stroke="white" stroke-linecap="round" stroke-linejoin="round" stroke-width="3"/>
          </g>
          <g id="Graphic_1021">
            <path d="M -2434.3512 835.5216 C -2432.2913 836.6238 -2429.999 835.5745 -2428.3818 832.3737 C -2425.976 827.6118 -2425.976 819.8913 -2428.3818 815.1294 C -2429.999 811.9286 -2432.2913 810.8793 -2434.3512 811.9815 C -2433.3466 812.519 -2432.3973 813.56835 -2431.6086 815.1294 C -2429.203 819.8913 -2429.203 827.6118 -2431.6086 832.3737 C -2432.3973 833.9347 -2433.3466 834.9841 -2434.3512 835.5216 Z" fill="white"/>
          </g>
        </g>
      </g>
    </g>
  </g>
</svg>
