<?xml version="1.0" encoding="UTF-8" standalone="no"?>
<!DOCTYPE svg PUBLIC "-//W3C//DTD SVG 1.1//EN" "http://www.w3.org/Graphics/SVG/1.1/DTD/svg11.dtd">
<svg xmlns:xl="http://www.w3.org/1999/xlink" xmlns:dc="http://purl.org/dc/elements/1.1/" version="1.1" xmlns="http://www.w3.org/2000/svg" viewBox="-2840 696 433 271" width="433" height="271">
  <defs>
    <linearGradient x1="0" x2="1" id="Gradient" gradientUnits="userSpaceOnUse">
      <stop offset="0" stop-color="#181a19"/>
      <stop offset=".9079928" stop-color="#262726"/>
      <stop offset="1" stop-color="#333"/>
    </linearGradient>
    <linearGradient id="Obj_Gradient" xl:href="#Gradient" gradientTransform="translate(-2623.5 966.5) rotate(-90) scale(270)"/>
  </defs>
  <g id="Canvas_1" stroke-opacity="1" stroke-dasharray="none" fill="none" fill-opacity="1" stroke="none">
    <title>Canvas 1</title>
    <g id="Canvas_1_Layer_2">
      <title>Layer 2</title>
      <g id="Group_1007">
        <g id="Graphic_47">
          <path d="M -2824.5 696.5 L -2422.5 696.5 C -2414.2157 696.5 -2407.5 703.2157 -2407.5 711.5 L -2407.5 951.5 C -2407.5 959.7843 -2414.2157 966.5 -2422.5 966.5 L -2824.5 966.5 C -2832.7843 966.5 -2839.5 959.7843 -2839.5 951.5 L -2839.5 711.5 C -2839.5 703.2157 -2832.7843 696.5 -2824.5 696.5 Z" fill="url(#Obj_Gradient)"/>
          <path d="M -2824.5 696.5 L -2422.5 696.5 C -2414.2157 696.5 -2407.5 703.2157 -2407.5 711.5 L -2407.5 951.5 C -2407.5 959.7843 -2414.2157 966.5 -2422.5 966.5 L -2824.5 966.5 C -2832.7843 966.5 -2839.5 959.7843 -2839.5 951.5 L -2839.5 711.5 C -2839.5 703.2157 -2832.7843 696.5 -2824.5 696.5 Z" stroke="black" stroke-linecap="round" stroke-linejoin="round" stroke-width="1"/>
        </g>
        <g id="Graphic_48">
          <text transform="translate(-2706.6147 710.1543)" fill="#a9ec9f">
            <tspan font-family="Roboto, Arial, sans-serif" font-weight="bold" font-size="24" fill="#a9ec9f" x="0" y="22" xml:space="preserve">ƒ</tspan>
            <tspan font-family="Roboto, Arial, sans-serif" font-size="24" fill="#7f7f7f" y="22" xml:space="preserve"> </tspan>
            <tspan font-family="Roboto, Arial, sans-serif" font-size="24" fill="#7fb276" y="22" xml:space="preserve">Dust (Audio)</tspan>
          </text>
        </g>
        <g id="Group_49">
          <title>Bool</title>
          <g id="Graphic_51">
            <ellipse cx="-2804.518" cy="779.7099" rx="11.6606870130668" ry="11.6666853088554" fill="black"/>
            <ellipse cx="-2804.518" cy="779.7099" rx="11.6606870130668" ry="11.6666853088554" stroke="#900002" stroke-linecap="round" stroke-linejoin="round" stroke-width="3"/>
          </g>
          <g id="Graphic_50">
            <path d="M -2789.9223 773.1667 L -2783.259 779.7099 L -2789.9223 786.2531 Z" fill="#900002"/>
            <path d="M -2789.9223 773.1667 L -2783.259 779.7099 L -2789.9223 786.2531 Z" stroke="#900002" stroke-linecap="round" stroke-linejoin="round" stroke-width="0"/>
          </g>
        </g>
        <g id="Group_52">
          <title>Audio</title>
          <g id="Graphic_54">
            <ellipse cx="-2446.9242" cy="779.7099" rx="11.6606870130667" ry="11.6666853088554" fill="black"/>
            <ellipse cx="-2446.9242" cy="779.7099" rx="11.6606870130667" ry="11.6666853088554" stroke="#cd79cb" stroke-linecap="round" stroke-linejoin="round" stroke-width="3"/>
          </g>
          <g id="Graphic_53">
            <path d="M -2432.3284 773.1667 L -2425.6652 779.7099 L -2432.3284 786.2531 Z" fill="#ce78ca"/>
            <path d="M -2432.3284 773.1667 L -2425.6652 779.7099 L -2432.3284 786.2531 Z" stroke="black" stroke-linecap="round" stroke-linejoin="round" stroke-width="0"/>
          </g>
        </g>
        <g id="Graphic_55">
          <text transform="translate(-2601.625 765.7099)" fill="white">
            <tspan font-family="Roboto, Arial, sans-serif" font-size="24" fill="white" x="0" y="22" xml:space="preserve">Impulse Out</tspan>
          </text>
        </g>
        <g id="Graphic_56">
          <text transform="translate(-2774.531 765.7099)" fill="white">
            <tspan font-family="Roboto, Arial, sans-serif" font-size="24" fill="white" x="0" y="22" xml:space="preserve">Enabled</tspan>
          </text>
        </g>
        <g id="Graphic_57">
          <path d="M -2675.7685 763.0432 L -2654.4523 763.0432 C -2651.1386 763.0432 -2648.4523 765.7295 -2648.4523 769.0432 L -2648.4523 790.3765 C -2648.4523 793.69025 -2651.1386 796.3765 -2654.4523 796.3765 L -2675.7685 796.3765 C -2679.0822 796.3765 -2681.7685 793.69025 -2681.7685 790.3765 L -2681.7685 769.0432 C -2681.7685 765.7295 -2679.0822 763.0432 -2675.7685 763.0432 Z" fill="black"/>
          <path d="M -2675.7685 763.0432 L -2654.4523 763.0432 C -2651.1386 763.0432 -2648.4523 765.7295 -2648.4523 769.0432 L -2648.4523 790.3765 C -2648.4523 793.69025 -2651.1386 796.3765 -2654.4523 796.3765 L -2675.7685 796.3765 C -2679.0822 796.3765 -2681.7685 793.69025 -2681.7685 790.3765 L -2681.7685 769.0432 C -2681.7685 765.7295 -2679.0822 763.0432 -2675.7685 763.0432 Z" stroke="#363536" stroke-linecap="round" stroke-linejoin="round" stroke-width="2"/>
          <text transform="translate(-2676.7685 765.7099)" fill="#00b0f0">
            <tspan font-family="Lucida Grande" font-size="24" fill="#00b0f0" x="2.4881754" y="23" xml:space="preserve">✓</tspan>
          </text>
        </g>
        <g id="Group_68">
          <title>Bool</title>
          <g id="Graphic_70">
            <ellipse cx="-2805.1697" cy="826.0679" rx="11.6606870130668" ry="11.6666853088555" fill="black"/>
            <ellipse cx="-2805.1697" cy="826.0679" rx="11.6606870130668" ry="11.6666853088555" stroke="#900002" stroke-linecap="round" stroke-linejoin="round" stroke-width="3"/>
          </g>
          <g id="Graphic_69">
            <path d="M -2790.574 819.5247 L -2783.9107 826.0679 L -2790.574 832.6111 Z" fill="#900002"/>
            <path d="M -2790.574 819.5247 L -2783.9107 826.0679 L -2790.574 832.6111 Z" stroke="#900002" stroke-linecap="round" stroke-linejoin="round" stroke-width="0"/>
          </g>
        </g>
        <g id="Graphic_71">
          <text transform="translate(-2775.1825 812.0679)" fill="white">
            <tspan font-family="Roboto, Arial, sans-serif" font-size="24" fill="white" x="0" y="22" xml:space="preserve">Bi-Polar</tspan>
          </text>
        </g>
        <g id="Graphic_72">
          <path d="M -2676.4202 809.4012 L -2655.104 809.4012 C -2651.7903 809.4012 -2649.104 812.0875 -2649.104 815.4012 L -2649.104 836.7346 C -2649.104 840.0483 -2651.7903 842.7346 -2655.104 842.7346 L -2676.4202 842.7346 C -2679.734 842.7346 -2682.4202 840.0483 -2682.4202 836.7346 L -2682.4202 815.4012 C -2682.4202 812.0875 -2679.734 809.4012 -2676.4202 809.4012 Z" fill="black"/>
          <path d="M -2676.4202 809.4012 L -2655.104 809.4012 C -2651.7903 809.4012 -2649.104 812.0875 -2649.104 815.4012 L -2649.104 836.7346 C -2649.104 840.0483 -2651.7903 842.7346 -2655.104 842.7346 L -2676.4202 842.7346 C -2679.734 842.7346 -2682.4202 840.0483 -2682.4202 836.7346 L -2682.4202 815.4012 C -2682.4202 812.0875 -2679.734 809.4012 -2676.4202 809.4012 Z" stroke="#363536" stroke-linecap="round" stroke-linejoin="round" stroke-width="2"/>
          <text transform="translate(-2677.4202 812.0679)" fill="#00b0f0">
            <tspan font-family="Lucida Grande" font-size="24" fill="#00b0f0" x="2.4881754" y="23" xml:space="preserve">✓</tspan>
          </text>
        </g>
        <g id="Group_74">
          <title>Float</title>
          <g id="Graphic_76">
            <ellipse cx="-2805.1697" cy="876.5" rx="11.6606870130668" ry="11.6666853088555" fill="black"/>
            <ellipse cx="-2805.1697" cy="876.5" rx="11.6606870130668" ry="11.6666853088555" stroke="#9df945" stroke-linecap="round" stroke-linejoin="round" stroke-width="3"/>
          </g>
          <g id="Graphic_75">
            <path d="M -2790.574 869.9568 L -2783.9107 876.5 L -2790.574 883.0432 Z" fill="#9df945"/>
            <path d="M -2790.574 869.9568 L -2783.9107 876.5 L -2790.574 883.0432 Z" stroke="#9df945" stroke-linecap="round" stroke-linejoin="round" stroke-width="0"/>
          </g>
        </g>
        <g id="Graphic_78">
          <text transform="translate(-2771.1992 862.5)" fill="white">
            <tspan font-family="Roboto, Arial, sans-serif" font-size="24" fill="white" x="0" y="22" xml:space="preserve">Density</tspan>
          </text>
        </g>
        <g id="Graphic_79">
          <path d="M -2678.7685 857.7346 L -2639.2364 857.7346 C -2637.5795 857.7346 -2636.2364 859.0777 -2636.2364 860.7346 L -2636.2364 888.0679 C -2636.2364 889.7248 -2637.5795 891.0679 -2639.2364 891.0679 L -2678.7685 891.0679 C -2680.4254 891.0679 -2681.7685 889.7248 -2681.7685 888.0679 L -2681.7685 860.7346 C -2681.7685 859.0777 -2680.4254 857.7346 -2678.7685 857.7346 Z" fill="black"/>
          <path d="M -2678.7685 857.7346 L -2639.2364 857.7346 C -2637.5795 857.7346 -2636.2364 859.0777 -2636.2364 860.7346 L -2636.2364 888.0679 C -2636.2364 889.7248 -2637.5795 891.0679 -2639.2364 891.0679 L -2678.7685 891.0679 C -2680.4254 891.0679 -2681.7685 889.7248 -2681.7685 888.0679 L -2681.7685 860.7346 C -2681.7685 859.0777 -2680.4254 857.7346 -2678.7685 857.7346 Z" stroke="#d7d5d5" stroke-linecap="round" stroke-linejoin="round" stroke-width="2"/>
          <text transform="translate(-2676.7685 860.4012)" fill="#bfbebf">
            <tspan font-family="Roboto, Arial, sans-serif" font-size="24" fill="#bfbebf" x="1.1313019" y="22" xml:space="preserve">0.0</tspan>
          </text>
        </g>
        <g id="Group_80">
          <title>Audio</title>
          <g id="Graphic_82">
            <ellipse cx="-2805.1697" cy="924.8333" rx="11.6606870130668" ry="11.6666853088555" fill="black"/>
            <ellipse cx="-2805.1697" cy="924.8333" rx="11.6606870130668" ry="11.6666853088555" stroke="#cd79cb" stroke-linecap="round" stroke-linejoin="round" stroke-width="3"/>
          </g>
          <g id="Graphic_81">
            <path d="M -2790.574 918.2901 L -2783.9107 924.8333 L -2790.574 931.3765 Z" fill="#ce78ca"/>
            <path d="M -2790.574 918.2901 L -2783.9107 924.8333 L -2790.574 931.3765 Z" stroke="black" stroke-linecap="round" stroke-linejoin="round" stroke-width="0"/>
          </g>
        </g>
        <g id="Graphic_89">
          <text transform="translate(-2771.1992 910.8333)" fill="white">
            <tspan font-family="Roboto, Arial, sans-serif" font-size="24" fill="white" x="0" y="22" xml:space="preserve">Modulation</tspan>
          </text>
        </g>
      </g>
    </g>
  </g>
</svg>
