<?xml version="1.0" encoding="UTF-8" standalone="no"?>
<!DOCTYPE svg PUBLIC "-//W3C//DTD SVG 1.1//EN" "http://www.w3.org/Graphics/SVG/1.1/DTD/svg11.dtd">
<svg version="1.1" xmlns="http://www.w3.org/2000/svg" xmlns:xl="http://www.w3.org/1999/xlink" xmlns:dc="http://purl.org/dc/elements/1.1/" viewBox="-2390 213.46875 433 181" width="433" height="181">
  <defs>
    <linearGradient x1="0" x2="1" id="Gradient" gradientUnits="userSpaceOnUse">
      <stop offset="0" stop-color="#181a19"/>
      <stop offset=".9079928" stop-color="#262726"/>
      <stop offset="1" stop-color="#333"/>
    </linearGradient>
    <linearGradient id="Obj_Gradient" xl:href="#Gradient" gradientTransform="translate(-2173.5 393.96875) rotate(-90) scale(180)"/>
  </defs>
  <g id="Canvas_1" fill-opacity="1" stroke-dasharray="none" stroke="none" fill="none" stroke-opacity="1">
    <title>Canvas 1</title>
    <g id="Canvas_1_Layer_5">
      <title>Layer 5</title>
      <g id="Graphic_630">
        <path d="M -2374.5 213.96875 L -1972.5 213.96875 C -1964.2157 213.96875 -1957.5 220.68448 -1957.5 228.96875 L -1957.5 378.96875 C -1957.5 387.253 -1964.2157 393.96875 -1972.5 393.96875 L -2374.5 393.96875 C -2382.7843 393.96875 -2389.5 387.253 -2389.5 378.96875 L -2389.5 228.96875 C -2389.5 220.68448 -2382.7843 213.96875 -2374.5 213.96875 Z" fill="url(#Obj_Gradient)"/>
        <path d="M -2374.5 213.96875 L -1972.5 213.96875 C -1964.2157 213.96875 -1957.5 220.68448 -1957.5 228.96875 L -1957.5 378.96875 C -1957.5 387.253 -1964.2157 393.96875 -1972.5 393.96875 L -2374.5 393.96875 C -2382.7843 393.96875 -2389.5 387.253 -2389.5 378.96875 L -2389.5 228.96875 C -2389.5 220.68448 -2382.7843 213.96875 -2374.5 213.96875 Z" stroke="black" stroke-linecap="round" stroke-linejoin="round" stroke-width="1"/>
      </g>
      <g id="Graphic_629">
        <text transform="translate(-2227.4202 229.29)" fill="#a9ec9f">
          <tspan font-family="Roboto, Arial, sans-serif" font-weight="bold" font-size="24" fill="#a9ec9f" x="0" y="22" xml:space="preserve">ƒ</tspan>
          <tspan font-family="Roboto, Arial, sans-serif" font-size="24" fill="#7f7f7f" y="22" xml:space="preserve"> </tspan>
          <tspan font-family="Roboto, Arial, sans-serif" font-size="24" fill="#7fb276" y="22" xml:space="preserve">Impulse</tspan>
        </text>
      </g>
      <g id="Group_623">
        <title>Audio</title>
        <g id="Graphic_625">
          <ellipse cx="-1998.3525" cy="349.3881" rx="11.6606870130669" ry="12.1935678711908" fill="black"/>
          <ellipse cx="-1998.3525" cy="349.3881" rx="11.6606870130669" ry="12.1935678711908" stroke="#cd79cb" stroke-linecap="round" stroke-linejoin="round" stroke-width="3"/>
        </g>
        <g id="Graphic_624">
          <path d="M -1983.7567 342.5494 L -1977.0935 349.3881 L -1983.7567 356.2268 Z" fill="#ce78ca"/>
          <path d="M -1983.7567 342.5494 L -1977.0935 349.3881 L -1983.7567 356.2268 Z" stroke="black" stroke-linecap="round" stroke-linejoin="round" stroke-width="0"/>
        </g>
      </g>
      <g id="Graphic_622">
        <text transform="translate(-2182.6995 335.3881)" fill="white">
          <tspan font-family="Roboto, Arial, sans-serif" font-size="24" fill="white" x="0" y="22" xml:space="preserve">Impulse Output</tspan>
        </text>
      </g>
      <g id="Graphic_621">
        <text transform="translate(-2324.5308 286.9365)" fill="white">
          <tspan font-family="Roboto, Arial, sans-serif" font-size="24" fill="white" x="0" y="22" xml:space="preserve">Trigger</tspan>
        </text>
      </g>
      <g id="Group_617">
        <title>Bool</title>
        <g id="Graphic_619">
          <ellipse cx="-2355.1697" cy="349.3881" rx="11.6606870130667" ry="12.1935678711908" fill="black"/>
          <ellipse cx="-2355.1697" cy="349.3881" rx="11.6606870130667" ry="12.1935678711908" stroke="#900002" stroke-linecap="round" stroke-linejoin="round" stroke-width="3"/>
        </g>
        <g id="Graphic_618">
          <path d="M -2340.574 342.5494 L -2333.9107 349.3881 L -2340.574 356.2268 Z" fill="#900002"/>
          <path d="M -2340.574 342.5494 L -2333.9107 349.3881 L -2340.574 356.2268 Z" stroke="#900002" stroke-linecap="round" stroke-linejoin="round" stroke-width="0"/>
        </g>
      </g>
      <g id="Graphic_616">
        <text transform="translate(-2325.1825 335.3881)" fill="white">
          <tspan font-family="Roboto, Arial, sans-serif" font-size="24" fill="white" x="0" y="22" xml:space="preserve">Bi-Polar</tspan>
        </text>
      </g>
      <g id="Graphic_615">
        <path d="M -2226.4202 331.96875 L -2205.104 331.96875 C -2201.7903 331.96875 -2199.104 334.65504 -2199.104 337.96875 L -2199.104 360.80746 C -2199.104 364.12117 -2201.7903 366.80746 -2205.104 366.80746 L -2226.4202 366.80746 C -2229.734 366.80746 -2232.4202 364.12117 -2232.4202 360.80746 L -2232.4202 337.96875 C -2232.4202 334.65504 -2229.734 331.96875 -2226.4202 331.96875 Z" fill="black"/>
        <path d="M -2226.4202 331.96875 L -2205.104 331.96875 C -2201.7903 331.96875 -2199.104 334.65504 -2199.104 337.96875 L -2199.104 360.80746 C -2199.104 364.12117 -2201.7903 366.80746 -2205.104 366.80746 L -2226.4202 366.80746 C -2229.734 366.80746 -2232.4202 364.12117 -2232.4202 360.80746 L -2232.4202 337.96875 C -2232.4202 334.65504 -2229.734 331.96875 -2226.4202 331.96875 Z" stroke="#363536" stroke-linecap="round" stroke-linejoin="round" stroke-width="2"/>
        <text transform="translate(-2227.4202 335.3881)" fill="#00b0f0">
          <tspan font-family="Lucida Grande" font-size="24" fill="#00b0f0" x="2.4881754" y="23" xml:space="preserve">✓</tspan>
        </text>
      </g>
      <g id="Group_634">
        <title>Trigger</title>
        <g id="Graphic_636">
          <ellipse cx="-2354.2574" cy="301.64618" rx="11.6606870130667" ry="12.1935678711908" fill="black"/>
          <ellipse cx="-2354.2574" cy="301.64618" rx="11.6606870130667" ry="12.1935678711908" stroke="white" stroke-linecap="round" stroke-linejoin="round" stroke-width="3"/>
        </g>
        <g id="Graphic_635">
          <path d="M -2342.5967 313.41623 C -2340.5368 314.51845 -2338.2444 313.46914 -2336.6273 310.2683 C -2334.2215 305.50643 -2334.2215 297.7859 -2336.6273 293.02404 C -2338.2444 289.8232 -2340.5368 288.7739 -2342.5967 289.8761 C -2341.592 290.41367 -2340.6428 291.463 -2339.854 293.02404 C -2337.4484 297.7859 -2337.4484 305.50643 -2339.854 310.2683 C -2340.6428 311.82937 -2341.592 312.8787 -2342.5967 313.41624 Z" fill="white"/>
        </g>
      </g>
      <g id="Graphic_906">
        <text transform="translate(-2129.125 282.3498)" fill="white">
          <tspan font-family="Roboto, Arial, sans-serif" font-size="24" fill="white" x="0" y="22" xml:space="preserve">On Trigger</tspan>
        </text>
      </g>
      <g id="Group_903">
        <title>Trigger</title>
        <g id="Graphic_905">
          <ellipse cx="-1998.3525" cy="296.3498" rx="11.6606870130669" ry="12.1935678711908" fill="black"/>
          <ellipse cx="-1998.3525" cy="296.3498" rx="11.6606870130669" ry="12.1935678711908" stroke="white" stroke-linecap="round" stroke-linejoin="round" stroke-width="3"/>
        </g>
        <g id="Graphic_904">
          <path d="M -1986.6918 308.11986 C -1984.632 309.22208 -1982.3395 308.17277 -1980.7224 304.97194 C -1978.3166 300.21006 -1978.3166 292.48955 -1980.7224 287.72767 C -1982.3395 284.52684 -1984.632 283.47753 -1986.6918 284.57974 C -1985.6872 285.1173 -1984.7379 286.1666 -1983.9492 287.72767 C -1981.5434 292.48955 -1981.5434 300.21006 -1983.9492 304.97194 C -1984.738 306.533 -1985.6872 307.5823 -1986.6918 308.11987 Z" fill="white"/>
        </g>
      </g>
    </g>
  </g>
</svg>
