<?xml version="1.0" encoding="UTF-8" standalone="no"?>
<!DOCTYPE svg PUBLIC "-//W3C//DTD SVG 1.1//EN" "http://www.w3.org/Graphics/SVG/1.1/DTD/svg11.dtd">
<svg xmlns="http://www.w3.org/2000/svg" xmlns:xl="http://www.w3.org/1999/xlink" xmlns:dc="http://purl.org/dc/elements/1.1/" version="1.1" viewBox="-2391.125 184 433 173" width="433" height="173">
  <defs>
    <linearGradient x1="0" x2="1" id="Gradient" gradientUnits="userSpaceOnUse">
      <stop offset="0" stop-color="#181a19"/>
      <stop offset=".9079928" stop-color="#262726"/>
      <stop offset="1" stop-color="#333"/>
    </linearGradient>
    <linearGradient id="Obj_Gradient" xl:href="#Gradient" gradientTransform="translate(-2174.625 356.5) rotate(-90) scale(172)"/>
  </defs>
  <g id="Canvas_1" stroke-opacity="1" fill-opacity="1" stroke-dasharray="none" fill="none" stroke="none">
    <title>Canvas 1</title>
    <g id="Canvas_1_Layer_1">
      <title>Layer 1</title>
      <g id="Group_743">
        <g id="Graphic_583">
          <path d="M -2375.625 184.5 L -1973.625 184.5 C -1965.3407 184.5 -1958.625 191.21573 -1958.625 199.5 L -1958.625 341.5 C -1958.625 349.78427 -1965.3407 356.5 -1973.625 356.5 L -2375.625 356.5 C -2383.9093 356.5 -2390.625 349.78427 -2390.625 341.5 L -2390.625 199.5 C -2390.625 191.21573 -2383.9093 184.5 -2375.625 184.5 Z" fill="url(#Obj_Gradient)"/>
          <path d="M -2375.625 184.5 L -1973.625 184.5 C -1965.3407 184.5 -1958.625 191.21573 -1958.625 199.5 L -1958.625 341.5 C -1958.625 349.78427 -1965.3407 356.5 -1973.625 356.5 L -2375.625 356.5 C -2383.9093 356.5 -2390.625 349.78427 -2390.625 341.5 L -2390.625 199.5 C -2390.625 191.21573 -2383.9093 184.5 -2375.625 184.5 Z" stroke="black" stroke-linecap="round" stroke-linejoin="round" stroke-width="1"/>
        </g>
        <g id="Graphic_582">
          <text transform="translate(-2268.465 200.42283)" fill="#a9ec9f">
            <tspan font-family="Roboto, Arial, sans-serif" font-weight="bold" font-size="24" fill="#a9ec9f" x="0" y="22" xml:space="preserve">ƒ</tspan>
            <tspan font-family="Roboto, Arial, sans-serif" font-size="24" fill="#7f7f7f" y="22" xml:space="preserve"> </tspan>
            <tspan font-family="Roboto, Arial, sans-serif" font-size="24" fill="#7fb276" y="22" xml:space="preserve">Phase Disperser</tspan>
          </text>
        </g>
        <g id="Graphic_576">
          <text transform="translate(-2322.3242 304.1341)" fill="white">
            <tspan font-family="Roboto, Arial, sans-serif" font-size="24" fill="white" x="0" y="22" xml:space="preserve">Stages</tspan>
          </text>
        </g>
        <g id="Graphic_575">
          <path d="M -2235.001 299.09807 L -2217.826 299.09807 C -2216.1692 299.09807 -2214.826 300.4412 -2214.826 302.09807 L -2214.826 330.4775 C -2214.826 332.13435 -2216.1692 333.4775 -2217.826 333.4775 L -2235.001 333.4775 C -2236.6578 333.4775 -2238.001 332.13435 -2238.001 330.4775 L -2238.001 302.09807 C -2238.001 300.4412 -2236.6578 299.09807 -2235.001 299.09807 Z" fill="black"/>
          <path d="M -2235.001 299.09807 L -2217.826 299.09807 C -2216.1692 299.09807 -2214.826 300.4412 -2214.826 302.09807 L -2214.826 330.4775 C -2214.826 332.13435 -2216.1692 333.4775 -2217.826 333.4775 L -2235.001 333.4775 C -2236.6578 333.4775 -2238.001 332.13435 -2238.001 330.4775 L -2238.001 302.09807 C -2238.001 300.4412 -2236.6578 299.09807 -2235.001 299.09807 Z" stroke="#d7d5d5" stroke-linecap="round" stroke-linejoin="round" stroke-width="2"/>
          <text transform="translate(-2233.001 302.28778)" fill="#bfbebf">
            <tspan font-family="Roboto, Arial, sans-serif" font-size="24" fill="#bfbebf" x="0" y="22" xml:space="preserve">0</tspan>
          </text>
        </g>
        <g id="Group_587">
          <title>Int32</title>
          <g id="Graphic_589">
            <ellipse cx="-2356.2947" cy="318.1341" rx="11.6606870130668" ry="12.0328166548825" fill="black"/>
            <ellipse cx="-2356.2947" cy="318.1341" rx="11.6606870130668" ry="12.0328166548825" stroke="#00d199" stroke-linecap="round" stroke-linejoin="round" stroke-width="3"/>
          </g>
          <g id="Graphic_588">
            <path d="M -2341.699 311.38554 L -2335.0357 318.1341 L -2341.699 324.88264 Z" fill="#00d199"/>
            <path d="M -2341.699 311.38554 L -2335.0357 318.1341 L -2341.699 324.88264 Z" stroke="#9df945" stroke-linecap="round" stroke-linejoin="round" stroke-width="0"/>
          </g>
        </g>
        <g id="Group_603">
          <title>Audio</title>
          <g id="Graphic_605">
            <ellipse cx="-1998.0492" cy="270.32122" rx="11.6606870130669" ry="12.0328166548825" fill="black"/>
            <ellipse cx="-1998.0492" cy="270.32122" rx="11.6606870130669" ry="12.0328166548825" stroke="#cd79cb" stroke-linecap="round" stroke-linejoin="round" stroke-width="3"/>
          </g>
          <g id="Graphic_604">
            <path d="M -1983.4534 263.57267 L -1976.7902 270.32122 L -1983.4534 277.06977 Z" fill="#ce78ca"/>
            <path d="M -1983.4534 263.57267 L -1976.7902 270.32122 L -1983.4534 277.06977 Z" stroke="black" stroke-linecap="round" stroke-linejoin="round" stroke-width="0"/>
          </g>
        </g>
        <g id="Graphic_602">
          <text transform="translate(-2058.5238 256.32122)" fill="white">
            <tspan font-family="Roboto, Arial, sans-serif" font-size="24" fill="white" x="0" y="22" xml:space="preserve">Out</tspan>
          </text>
        </g>
        <g id="Graphic_601">
          <text transform="translate(-2325.8168 256.32122)" fill="white">
            <tspan font-family="Roboto, Arial, sans-serif" font-size="24" fill="white" x="0" y="22" xml:space="preserve">In</tspan>
          </text>
        </g>
        <g id="Group_598">
          <title>Audio</title>
          <g id="Graphic_600">
            <ellipse cx="-2356.4556" cy="270.32122" rx="11.6606870130668" ry="12.0328166548825" fill="black"/>
            <ellipse cx="-2356.4556" cy="270.32122" rx="11.6606870130668" ry="12.0328166548825" stroke="#cd79cb" stroke-linecap="round" stroke-linejoin="round" stroke-width="3"/>
          </g>
          <g id="Graphic_599">
            <path d="M -2341.86 263.57267 L -2335.1967 270.32122 L -2341.86 277.06977 Z" fill="#ce78ca"/>
            <path d="M -2341.86 263.57267 L -2335.1967 270.32122 L -2341.86 277.06977 Z" stroke="black" stroke-linecap="round" stroke-linejoin="round" stroke-width="0"/>
          </g>
        </g>
      </g>
    </g>
  </g>
</svg>
