<?xml version="1.0" encoding="UTF-8" standalone="no"?>
<!DOCTYPE svg PUBLIC "-//W3C//DTD SVG 1.1//EN" "http://www.w3.org/Graphics/SVG/1.1/DTD/svg11.dtd">
<svg xmlns:xl="http://www.w3.org/1999/xlink" xmlns:dc="http://purl.org/dc/elements/1.1/" version="1.1" xmlns="http://www.w3.org/2000/svg" viewBox="-2391.125 376.59375 433 217" width="433" height="217">
  <defs>
    <linearGradient x1="0" x2="1" id="Gradient" gradientUnits="userSpaceOnUse">
      <stop offset="0" stop-color="#181a19"/>
      <stop offset=".9079928" stop-color="#262726"/>
      <stop offset="1" stop-color="#333"/>
    </linearGradient>
    <linearGradient id="Obj_Gradient" xl:href="#Gradient" gradientTransform="translate(-2174.625 593.09375) rotate(-90) scale(216)"/>
  </defs>
  <g id="Canvas_1" stroke-opacity="1" stroke-dasharray="none" fill="none" fill-opacity="1" stroke="none">
    <title>Canvas 1</title>
    <g id="Canvas_1_Layer_9">
      <title>Layer 9</title>
      <g id="Group_746">
        <g id="Graphic_637">
          <path d="M -2375.625 377.09375 L -1973.625 377.09375 C -1965.3407 377.09375 -1958.625 383.8095 -1958.625 392.09375 L -1958.625 578.09375 C -1958.625 586.378 -1965.3407 593.09375 -1973.625 593.09375 L -2375.625 593.09375 C -2383.9093 593.09375 -2390.625 586.378 -2390.625 578.09375 L -2390.625 392.09375 C -2390.625 383.8095 -2383.9093 377.09375 -2375.625 377.09375 Z" fill="url(#Obj_Gradient)"/>
          <path d="M -2375.625 377.09375 L -1973.625 377.09375 C -1965.3407 377.09375 -1958.625 383.8095 -1958.625 392.09375 L -1958.625 578.09375 C -1958.625 586.378 -1965.3407 593.09375 -1973.625 593.09375 L -2375.625 593.09375 C -2383.9093 593.09375 -2390.625 586.378 -2390.625 578.09375 L -2390.625 392.09375 C -2390.625 383.8095 -2383.9093 377.09375 -2375.625 377.09375 Z" stroke="black" stroke-linecap="round" stroke-linejoin="round" stroke-width="1"/>
        </g>
        <g id="Graphic_638">
          <text transform="translate(-2357.2383 393.12925)" fill="#a9ec9f">
            <tspan font-family="Roboto, Arial, sans-serif" font-weight="bold" font-size="24" fill="#a9ec9f" x="0" y="22" xml:space="preserve">ƒ</tspan>
            <tspan font-family="Roboto, Arial, sans-serif" font-size="24" fill="#7f7f7f" y="22" xml:space="preserve"> </tspan>
            <tspan font-family="Roboto, Arial, sans-serif" font-size="24" fill="#7fb276" y="22" xml:space="preserve">Sample and Hold (Audio Trigger)</tspan>
          </text>
        </g>
        <g id="Group_644">
          <title>Audio</title>
          <g id="Graphic_646">
            <ellipse cx="-1998.0492" cy="463.23813" rx="11.6606870130669" ry="12.078125808505" fill="black"/>
            <ellipse cx="-1998.0492" cy="463.23813" rx="11.6606870130669" ry="12.078125808505" stroke="#cd79cb" stroke-linecap="round" stroke-linejoin="round" stroke-width="3"/>
          </g>
          <g id="Graphic_645">
            <path d="M -1983.4534 456.46416 L -1976.7902 463.23813 L -1983.4534 470.0121 Z" fill="#ce78ca"/>
            <path d="M -1983.4534 456.46416 L -1976.7902 463.23813 L -1983.4534 470.0121 Z" stroke="black" stroke-linecap="round" stroke-linejoin="round" stroke-width="0"/>
          </g>
        </g>
        <g id="Graphic_647">
          <text transform="translate(-2058.203 449.23813)" fill="white">
            <tspan font-family="Roboto, Arial, sans-serif" font-size="24" fill="white" x="0" y="22" xml:space="preserve">Out</tspan>
          </text>
        </g>
        <g id="Graphic_648">
          <text transform="translate(-2325.8168 449.23813)" fill="white">
            <tspan font-family="Roboto, Arial, sans-serif" font-size="24" fill="white" x="0" y="22" xml:space="preserve">Signal</tspan>
          </text>
        </g>
        <g id="Group_649">
          <title>Audio</title>
          <g id="Graphic_651">
            <ellipse cx="-2356.4556" cy="463.23813" rx="11.6606870130668" ry="12.078125808505" fill="black"/>
            <ellipse cx="-2356.4556" cy="463.23813" rx="11.6606870130668" ry="12.078125808505" stroke="#cd79cb" stroke-linecap="round" stroke-linejoin="round" stroke-width="3"/>
          </g>
          <g id="Graphic_650">
            <path d="M -2341.86 456.46416 L -2335.1967 463.23813 L -2341.86 470.0121 Z" fill="#ce78ca"/>
            <path d="M -2341.86 456.46416 L -2335.1967 463.23813 L -2341.86 470.0121 Z" stroke="black" stroke-linecap="round" stroke-linejoin="round" stroke-width="0"/>
          </g>
        </g>
        <g id="Graphic_670">
          <text transform="translate(-2324.2299 497.29493)" fill="white">
            <tspan font-family="Roboto, Arial, sans-serif" font-size="24" fill="white" x="0" y="22" xml:space="preserve">Trigger</tspan>
          </text>
        </g>
        <g id="Group_684">
          <title>Audio</title>
          <g id="Graphic_686">
            <ellipse cx="-2356.4556" cy="511.29493" rx="11.6606870130668" ry="12.0781258085051" fill="black"/>
            <ellipse cx="-2356.4556" cy="511.29493" rx="11.6606870130668" ry="12.0781258085051" stroke="#cd79cb" stroke-linecap="round" stroke-linejoin="round" stroke-width="3"/>
          </g>
          <g id="Graphic_685">
            <path d="M -2341.86 504.52097 L -2335.1967 511.29493 L -2341.86 518.0689 Z" fill="#ce78ca"/>
            <path d="M -2341.86 504.52097 L -2335.1967 511.29493 L -2341.86 518.0689 Z" stroke="black" stroke-linecap="round" stroke-linejoin="round" stroke-width="0"/>
          </g>
        </g>
        <g id="Group_681">
          <title>Float</title>
          <g id="Graphic_683">
            <ellipse cx="-2356.4556" cy="561.90795" rx="11.6606870130668" ry="12.0781258085051" fill="black"/>
            <ellipse cx="-2356.4556" cy="561.90795" rx="11.6606870130668" ry="12.0781258085051" stroke="#9df945" stroke-linecap="round" stroke-linejoin="round" stroke-width="3"/>
          </g>
          <g id="Graphic_682">
            <path d="M -2341.86 555.134 L -2335.1967 561.90795 L -2341.86 568.6819 Z" fill="#9df945"/>
            <path d="M -2341.86 555.134 L -2335.1967 561.90795 L -2341.86 568.6819 Z" stroke="#9df945" stroke-linecap="round" stroke-linejoin="round" stroke-width="0"/>
          </g>
        </g>
        <g id="Graphic_680">
          <text transform="translate(-2322.4852 547.90795)" fill="white">
            <tspan font-family="Roboto, Arial, sans-serif" font-size="24" fill="white" x="0" y="22" xml:space="preserve">Threshold</tspan>
          </text>
        </g>
        <g id="Graphic_679">
          <path d="M -2202.7673 542.4807 L -2163.2352 542.4807 C -2161.5784 542.4807 -2160.2352 543.8239 -2160.2352 545.4807 L -2160.2352 573.9896 C -2160.2352 575.64646 -2161.5784 576.9896 -2163.2352 576.9896 L -2202.7673 576.9896 C -2204.4242 576.9896 -2205.7673 575.64646 -2205.7673 573.9896 L -2205.7673 545.4807 C -2205.7673 543.8239 -2204.4242 542.4807 -2202.7673 542.4807 Z" fill="black"/>
          <path d="M -2202.7673 542.4807 L -2163.2352 542.4807 C -2161.5784 542.4807 -2160.2352 543.8239 -2160.2352 545.4807 L -2160.2352 573.9896 C -2160.2352 575.64646 -2161.5784 576.9896 -2163.2352 576.9896 L -2202.7673 576.9896 C -2204.4242 576.9896 -2205.7673 575.64646 -2205.7673 573.9896 L -2205.7673 545.4807 C -2205.7673 543.8239 -2204.4242 542.4807 -2202.7673 542.4807 Z" stroke="#d7d5d5" stroke-linecap="round" stroke-linejoin="round" stroke-width="2"/>
          <text transform="translate(-2200.7673 545.7352)" fill="#bfbebf">
            <tspan font-family="Roboto, Arial, sans-serif" font-size="24" fill="#bfbebf" x="1.1313019" y="22" xml:space="preserve">0.0</tspan>
          </text>
        </g>
      </g>
    </g>
  </g>
</svg>
