<?xml version="1.0" encoding="UTF-8" standalone="no"?>
<!DOCTYPE svg PUBLIC "-//W3C//DTD SVG 1.1//EN" "http://www.w3.org/Graphics/SVG/1.1/DTD/svg11.dtd">
<svg xmlns="http://www.w3.org/2000/svg" xmlns:xl="http://www.w3.org/1999/xlink" xmlns:dc="http://purl.org/dc/elements/1.1/" version="1.1" viewBox="-408.875 866.875 438.625 244" width="438.625" height="244">
  <defs>
    <linearGradient x1="0" x2="1" id="Gradient" gradientUnits="userSpaceOnUse">
      <stop offset="0" stop-color="#181a19"/>
      <stop offset=".9079928" stop-color="#262726"/>
      <stop offset="1" stop-color="#333"/>
    </linearGradient>
    <linearGradient id="Obj_Gradient" xl:href="#Gradient" gradientTransform="translate(-189.5625 1110.375) rotate(-90) scale(243)"/>
  </defs>
  <g id="Canvas_1" stroke-opacity="1" fill-opacity="1" stroke-dasharray="none" fill="none" stroke="none">
    <title>Canvas 1</title>
    <g id="Canvas_1_Layer_1">
      <title>Layer 1</title>
      <g id="Graphic_344">
        <path d="M -393.375 867.375 L 14.25 867.375 C 22.53427 867.375 29.25 874.0907 29.25 882.375 L 29.25 1095.375 C 29.25 1103.6593 22.53427 1110.375 14.25 1110.375 L -393.375 1110.375 C -401.65927 1110.375 -408.375 1103.6593 -408.375 1095.375 L -408.375 882.375 C -408.375 874.0907 -401.65927 867.375 -393.375 867.375 Z" fill="url(#Obj_Gradient)"/>
        <path d="M -393.375 867.375 L 14.25 867.375 C 22.53427 867.375 29.25 874.0907 29.25 882.375 L 29.25 1095.375 C 29.25 1103.6593 22.53427 1110.375 14.25 1110.375 L -393.375 1110.375 C -401.65927 1110.375 -408.375 1103.6593 -408.375 1095.375 L -408.375 882.375 C -408.375 874.0907 -401.65927 867.375 -393.375 867.375 Z" stroke="black" stroke-linecap="round" stroke-linejoin="round" stroke-width="1"/>
      </g>
      <g id="Graphic_343">
        <text transform="translate(-263.77734 881.375)" fill="#a9ec9f">
          <tspan font-family="Roboto" font-weight="bold" font-size="24" fill="#a9ec9f" x="0" y="22" xml:space="preserve">ƒ</tspan>
          <tspan font-family="Roboto" font-size="24" fill="#7f7f7f" y="22" xml:space="preserve"> </tspan>
          <tspan font-family="Roboto" font-size="24" fill="#7fb276" y="22" xml:space="preserve">Slew (audio)</tspan>
        </text>
      </g>
      <g id="Group_337">
        <title>Audio</title>
        <g id="Graphic_339">
          <circle cx="-10.6875" cy="951.625" r="11.8125188752161" fill="black"/>
          <circle cx="-10.6875" cy="951.625" r="11.8125188752161" stroke="#cd79cb" stroke-linecap="round" stroke-linejoin="round" stroke-width="3"/>
        </g>
        <g id="Graphic_338">
          <path d="M 4.0982824 945 L 10.848282 951.625 L 4.0982824 958.25 Z" fill="#ce78ca"/>
          <path d="M 4.0982824 945 L 10.848282 951.625 L 4.0982824 958.25 Z" stroke="black" stroke-linecap="round" stroke-linejoin="round" stroke-width="0"/>
        </g>
      </g>
      <g id="Graphic_336">
        <text transform="translate(-71.85156 937.625)" fill="white">
          <tspan font-family="Roboto" font-size="24" fill="white" x="0" y="22" xml:space="preserve">Out</tspan>
        </text>
      </g>
      <g id="Graphic_335">
        <text transform="translate(-342.625 937.625)" fill="white">
          <tspan font-family="Roboto" font-size="24" fill="white" x="0" y="22" xml:space="preserve">In</tspan>
        </text>
      </g>
      <g id="Graphic_333">
        <text transform="translate(-342.625 991.75)" fill="white">
          <tspan font-family="Roboto" font-size="24" fill="white" x="0" y="22" xml:space="preserve">Rise Time</tspan>
        </text>
      </g>
      <g id="Graphic_332">
        <path d="M -226.5 988.875 L -186.375 988.875 C -184.71815 988.875 -183.375 990.2181 -183.375 991.875 L -183.375 1019.625 C -183.375 1021.2819 -184.71815 1022.625 -186.375 1022.625 L -226.5 1022.625 C -228.15685 1022.625 -229.5 1021.2819 -229.5 1019.625 L -229.5 991.875 C -229.5 990.2181 -228.15685 988.875 -226.5 988.875 Z" fill="black"/>
        <path d="M -226.5 988.875 L -186.375 988.875 C -184.71815 988.875 -183.375 990.2181 -183.375 991.875 L -183.375 1019.625 C -183.375 1021.2819 -184.71815 1022.625 -186.375 1022.625 L -226.5 1022.625 C -228.15685 1022.625 -229.5 1021.2819 -229.5 1019.625 L -229.5 991.875 C -229.5 990.2181 -228.15685 988.875 -226.5 988.875 Z" stroke="#d7d5d5" stroke-linecap="round" stroke-linejoin="round" stroke-width="2"/>
        <text transform="translate(-224.5 991.75)" fill="#bfbebf">
          <tspan font-family="Roboto" font-size="24" fill="#bfbebf" x="1.4277344" y="22" xml:space="preserve">0.0</tspan>
        </text>
      </g>
      <g id="Graphic_331">
        <text transform="translate(-342.625 1047.875)" fill="white">
          <tspan font-family="Roboto" font-size="24" fill="white" x="0" y="22" xml:space="preserve">Fall Time</tspan>
        </text>
      </g>
      <g id="Graphic_330">
        <path d="M -226.5 1045 L -186.375 1045 C -184.71815 1045 -183.375 1046.3431 -183.375 1048 L -183.375 1075.75 C -183.375 1077.4069 -184.71815 1078.75 -186.375 1078.75 L -226.5 1078.75 C -228.15685 1078.75 -229.5 1077.4069 -229.5 1075.75 L -229.5 1048 C -229.5 1046.3431 -228.15685 1045 -226.5 1045 Z" fill="black"/>
        <path d="M -226.5 1045 L -186.375 1045 C -184.71815 1045 -183.375 1046.3431 -183.375 1048 L -183.375 1075.75 C -183.375 1077.4069 -184.71815 1078.75 -186.375 1078.75 L -226.5 1078.75 C -228.15685 1078.75 -229.5 1077.4069 -229.5 1075.75 L -229.5 1048 C -229.5 1046.3431 -228.15685 1045 -226.5 1045 Z" stroke="#d7d5d5" stroke-linecap="round" stroke-linejoin="round" stroke-width="2"/>
        <text transform="translate(-224.5 1047.875)" fill="#bfbebf">
          <tspan font-family="Roboto" font-size="24" fill="#bfbebf" x="1.4277344" y="22" xml:space="preserve">0.0</tspan>
        </text>
      </g>
      <g id="Group_327">
        <title>Time</title>
        <g id="Graphic_329">
          <circle cx="-372.9375" cy="1005.75" r="11.8125188752161" fill="black"/>
          <circle cx="-372.9375" cy="1005.75" r="11.8125188752161" stroke="#5ed2d1" stroke-linecap="round" stroke-linejoin="round" stroke-width="3"/>
        </g>
        <g id="Graphic_328">
          <path d="M -358.1517 999.125 L -351.4017 1005.75 L -358.1517 1012.375 Z" fill="#5ed2d1"/>
          <path d="M -358.1517 999.125 L -351.4017 1005.75 L -358.1517 1012.375 Z" stroke="#5ed2d1" stroke-linecap="round" stroke-linejoin="round" stroke-width="0"/>
        </g>
      </g>
      <g id="Group_324">
        <title>Time</title>
        <g id="Graphic_326">
          <circle cx="-372.9375" cy="1061.875" r="11.8125188752161" fill="black"/>
          <circle cx="-372.9375" cy="1061.875" r="11.8125188752161" stroke="#5ed2d1" stroke-linecap="round" stroke-linejoin="round" stroke-width="3"/>
        </g>
        <g id="Graphic_325">
          <path d="M -358.1517 1055.25 L -351.4017 1061.875 L -358.1517 1068.5 Z" fill="#5ed2d1"/>
          <path d="M -358.1517 1055.25 L -351.4017 1061.875 L -358.1517 1068.5 Z" stroke="#5ed2d1" stroke-linecap="round" stroke-linejoin="round" stroke-width="0"/>
        </g>
      </g>
      <g id="Group_348">
        <title>Audio</title>
        <g id="Graphic_350">
          <circle cx="-373.59766" cy="951.625" r="11.8125188752161" fill="black"/>
          <circle cx="-373.59766" cy="951.625" r="11.8125188752161" stroke="#cd79cb" stroke-linecap="round" stroke-linejoin="round" stroke-width="3"/>
        </g>
        <g id="Graphic_349">
          <path d="M -358.81187 945 L -352.06187 951.625 L -358.81187 958.25 Z" fill="#ce78ca"/>
          <path d="M -358.81187 945 L -352.06187 951.625 L -358.81187 958.25 Z" stroke="black" stroke-linecap="round" stroke-linejoin="round" stroke-width="0"/>
        </g>
      </g>
    </g>
  </g>
</svg>
