<?xml version="1.0" encoding="UTF-8" standalone="no"?>
<!DOCTYPE svg PUBLIC "-//W3C//DTD SVG 1.1//EN" "http://www.w3.org/Graphics/SVG/1.1/DTD/svg11.dtd">
<svg xmlns="http://www.w3.org/2000/svg" xmlns:xl="http://www.w3.org/1999/xlink" xmlns:dc="http://purl.org/dc/elements/1.1/" version="1.1" viewBox="76 1152.625 438.625 237.25" width="438.625" height="237.25">
  <defs>
  <style type="text/css">
    @import url('https://fonts.googleapis.com/css?family=Roboto:400,100,100italic,300,300italic,400italic,500,500italic,700,700italic,900,900italic');
 </style>
    <linearGradient x1="0" x2="1" id="Gradient" gradientUnits="userSpaceOnUse">
      <stop offset="0" stop-color="#181a19"/>
      <stop offset=".9079928" stop-color="#262726"/>
      <stop offset="1" stop-color="#333"/>
    </linearGradient>
    <linearGradient id="Obj_Gradient" xl:href="#Gradient" gradientTransform="translate(295.3125 1389.375) rotate(-90) scale(236.25)"/>
  </defs>
  <g id="Canvas_1" stroke-opacity="1" fill-opacity="1" stroke-dasharray="none" fill="none" stroke="none">
    <title>Canvas 1</title>
    <g id="Canvas_1_Layer_1">
      <title>Layer 1</title>
      <g id="Graphic_436">
        <path d="M 91.5 1153.125 L 499.125 1153.125 C 507.4093 1153.125 514.125 1159.8407 514.125 1168.125 L 514.125 1374.375 C 514.125 1382.6593 507.4093 1389.375 499.125 1389.375 L 91.5 1389.375 C 83.21573 1389.375 76.5 1382.6593 76.5 1374.375 L 76.5 1168.125 C 76.5 1159.8407 83.21573 1153.125 91.5 1153.125 Z" fill="url(#Obj_Gradient)"/>
        <path d="M 91.5 1153.125 L 499.125 1153.125 C 507.4093 1153.125 514.125 1159.8407 514.125 1168.125 L 514.125 1374.375 C 514.125 1382.6593 507.4093 1389.375 499.125 1389.375 L 91.5 1389.375 C 83.21573 1389.375 76.5 1382.6593 76.5 1374.375 L 76.5 1168.125 C 76.5 1159.8407 83.21573 1153.125 91.5 1153.125 Z" stroke="black" stroke-linecap="round" stroke-linejoin="round" stroke-width="1"/>
      </g>
      <g id="Graphic_437">
        <text transform="translate(218.90625 1167.125)" fill="#a9ec9f">
          <tspan font-family="Roboto, Arial, sans-serif" font-weight="bold" font-size="24" fill="#a9ec9f" x="0" y="22" xml:space="preserve">ƒ</tspan>
          <tspan font-family="Roboto, Arial, sans-serif" font-size="24" fill="#7f7f7f" y="22" xml:space="preserve"> </tspan>
          <tspan font-family="Roboto, Arial, sans-serif" font-size="24" fill="#7fb276" y="22" xml:space="preserve">Stereo Width</tspan>
        </text>
      </g>
      <g id="Group_438">
        <title>Audio</title>
        <g id="Graphic_440">
          <circle cx="473.74023" cy="1237.375" r="11.8125188752161" fill="black"/>
          <circle cx="473.74023" cy="1237.375" r="11.8125188752161" stroke="#cd79cb" stroke-linecap="round" stroke-linejoin="round" stroke-width="3"/>
        </g>
        <g id="Graphic_439">
          <path d="M 488.526 1230.75 L 495.276 1237.375 L 488.526 1244 Z" fill="#ce78ca"/>
          <path d="M 488.526 1230.75 L 495.276 1237.375 L 488.526 1244 Z" stroke="black" stroke-linecap="round" stroke-linejoin="round" stroke-width="0"/>
        </g>
      </g>
      <g id="Graphic_441">
        <text transform="translate(389.30273 1223.375)" fill="white">
          <tspan font-family="Roboto, Arial, sans-serif" font-size="24" fill="white" x="0" y="22" xml:space="preserve">Out L</tspan>
        </text>
      </g>
      <g id="Graphic_442">
        <text transform="translate(142.25 1223.375)" fill="white">
          <tspan font-family="Roboto, Arial, sans-serif" font-size="24" fill="white" x="0" y="22" xml:space="preserve">In L</tspan>
        </text>
      </g>
      <g id="Group_443">
        <title>Audio</title>
        <g id="Graphic_445">
          <circle cx="111.27734" cy="1237.375" r="11.8125188752161" fill="black"/>
          <circle cx="111.27734" cy="1237.375" r="11.8125188752161" stroke="#cd79cb" stroke-linecap="round" stroke-linejoin="round" stroke-width="3"/>
        </g>
        <g id="Graphic_444">
          <path d="M 126.06313 1230.75 L 132.81313 1237.375 L 126.06313 1244 Z" fill="#ce78ca"/>
          <path d="M 126.06313 1230.75 L 132.81313 1237.375 L 126.06313 1244 Z" stroke="black" stroke-linecap="round" stroke-linejoin="round" stroke-width="0"/>
        </g>
      </g>
      <g id="Graphic_446">
        <text transform="translate(142.25 1277.375)" fill="white">
          <tspan font-family="Roboto, Arial, sans-serif" font-size="24" fill="white" x="0" y="22" xml:space="preserve">In R</tspan>
        </text>
      </g>
      <g id="Group_447">
        <title>Audio</title>
        <g id="Graphic_449">
          <circle cx="111.27734" cy="1291.375" r="11.8125188752161" fill="black"/>
          <circle cx="111.27734" cy="1291.375" r="11.8125188752161" stroke="#cd79cb" stroke-linecap="round" stroke-linejoin="round" stroke-width="3"/>
        </g>
        <g id="Graphic_448">
          <path d="M 126.06313 1284.75 L 132.81313 1291.375 L 126.06313 1298 Z" fill="#ce78ca"/>
          <path d="M 126.06313 1284.75 L 132.81313 1291.375 L 126.06313 1298 Z" stroke="black" stroke-linecap="round" stroke-linejoin="round" stroke-width="0"/>
        </g>
      </g>
      <g id="Group_463">
        <title>Audio</title>
        <g id="Graphic_465">
          <circle cx="473.74023" cy="1286" r="11.8125188752161" fill="black"/>
          <circle cx="473.74023" cy="1286" r="11.8125188752161" stroke="#cd79cb" stroke-linecap="round" stroke-linejoin="round" stroke-width="3"/>
        </g>
        <g id="Graphic_464">
          <path d="M 488.526 1279.375 L 495.276 1286 L 488.526 1292.625 Z" fill="#ce78ca"/>
          <path d="M 488.526 1279.375 L 495.276 1286 L 488.526 1292.625 Z" stroke="black" stroke-linecap="round" stroke-linejoin="round" stroke-width="0"/>
        </g>
      </g>
      <g id="Graphic_466">
        <text transform="translate(389.30273 1272)" fill="white">
          <tspan font-family="Roboto, Arial, sans-serif" font-size="24" fill="white" x="0" y="22" xml:space="preserve">Out R</tspan>
        </text>
      </g>
      <g id="Group_474">
        <title>Float</title>
        <g id="Graphic_476">
          <circle cx="111.27734" cy="1347.625" r="11.8125188752161" fill="black"/>
          <circle cx="111.27734" cy="1347.625" r="11.8125188752161" stroke="#9df945" stroke-linecap="round" stroke-linejoin="round" stroke-width="3"/>
        </g>
        <g id="Graphic_475">
          <path d="M 126.06313 1341 L 132.81313 1347.625 L 126.06313 1354.25 Z" fill="#9df945"/>
          <path d="M 126.06313 1341 L 132.81313 1347.625 L 126.06313 1354.25 Z" stroke="#9df945" stroke-linecap="round" stroke-linejoin="round" stroke-width="0"/>
        </g>
      </g>
      <g id="Graphic_473">
        <text transform="translate(145.625 1333.625)" fill="white">
          <tspan font-family="Roboto, Arial, sans-serif" font-size="24" fill="white" x="0" y="22" xml:space="preserve">Width</tspan>
        </text>
      </g>
      <g id="Graphic_472">
        <path d="M 217.875 1328.625 L 258 1328.625 C 259.65685 1328.625 261 1329.9681 261 1331.625 L 261 1359.375 C 261 1361.0319 259.65685 1362.375 258 1362.375 L 217.875 1362.375 C 216.21815 1362.375 214.875 1361.0319 214.875 1359.375 L 214.875 1331.625 C 214.875 1329.9681 216.21815 1328.625 217.875 1328.625 Z" fill="black"/>
        <path d="M 217.875 1328.625 L 258 1328.625 C 259.65685 1328.625 261 1329.9681 261 1331.625 L 261 1359.375 C 261 1361.0319 259.65685 1362.375 258 1362.375 L 217.875 1362.375 C 216.21815 1362.375 214.875 1361.0319 214.875 1359.375 L 214.875 1331.625 C 214.875 1329.9681 216.21815 1328.625 217.875 1328.625 Z" stroke="#d7d5d5" stroke-linecap="round" stroke-linejoin="round" stroke-width="2"/>
        <text transform="translate(219.875 1331.5)" fill="#bfbebf">
          <tspan font-family="Roboto, Arial, sans-serif" font-size="24" fill="#bfbebf" x="1.4277344" y="22" xml:space="preserve">1.0</tspan>
        </text>
      </g>
    </g>
  </g>
</svg>
