<?xml version="1.0" encoding="UTF-8" standalone="no"?>
<!DOCTYPE svg PUBLIC "-//W3C//DTD SVG 1.1//EN" "http://www.w3.org/Graphics/SVG/1.1/DTD/svg11.dtd">
<svg xmlns="http://www.w3.org/2000/svg" xmlns:xl="http://www.w3.org/1999/xlink" xmlns:dc="http://purl.org/dc/elements/1.1/" version="1.1" viewBox="-1941.6875 236.1875 433 237.25" width="433" height="237.25">
  <defs>
    <style type="text/css">
      @font-face {
        font-family: 'Roboto';
        src: url('https://fonts.googleapis.com/css2?family=Roboto') format('truetype');
      }
    </style>

    <linearGradient x1="0" x2="1" id="Gradient" gradientUnits="userSpaceOnUse">
      <stop offset="0" stop-color="#181a19"/>
      <stop offset=".9079928" stop-color="#262726"/>
      <stop offset="1" stop-color="#333"/>
    </linearGradient>
    <linearGradient id="Obj_Gradient" xl:href="#Gradient" gradientTransform="translate(-1725.1875 472.9375) rotate(-90) scale(236.25)"/>
  </defs>
  <g id="Canvas_1" stroke-opacity="1" fill-opacity="1" stroke-dasharray="none" fill="none" stroke="none">
    <title>Canvas 1</title>
    <g id="Canvas_1_Layer_1">
      <title>Layer 1</title>
      <g id="Group_774">
        <g id="Graphic_797">
          <path d="M -1926.1875 236.6875 L -1524.1875 236.6875 C -1515.9032 236.6875 -1509.1875 243.40323 -1509.1875 251.6875 L -1509.1875 457.9375 C -1509.1875 466.22177 -1515.9032 472.9375 -1524.1875 472.9375 L -1926.1875 472.9375 C -1934.4718 472.9375 -1941.1875 466.22177 -1941.1875 457.9375 L -1941.1875 251.6875 C -1941.1875 243.40323 -1934.4718 236.6875 -1926.1875 236.6875 Z" fill="url(#Obj_Gradient)"/>
          <path d="M -1926.1875 236.6875 L -1524.1875 236.6875 C -1515.9032 236.6875 -1509.1875 243.40323 -1509.1875 251.6875 L -1509.1875 457.9375 C -1509.1875 466.22177 -1515.9032 472.9375 -1524.1875 472.9375 L -1926.1875 472.9375 C -1934.4718 472.9375 -1941.1875 466.22177 -1941.1875 457.9375 L -1941.1875 251.6875 C -1941.1875 243.40323 -1934.4718 236.6875 -1926.1875 236.6875 Z" stroke="black" stroke-linecap="round" stroke-linejoin="round" stroke-width="1"/>
        </g>
        <g id="Graphic_796">
          <text transform="translate(-1813.5586 250.6875)" fill="#a9ec9f">
            <tspan font-family="Roboto" font-weight="bold" font-size="24" fill="#a9ec9f" x="0" y="22" xml:space="preserve">ƒ</tspan>
            <tspan font-family="Roboto" font-size="24" fill="#7f7f7f" y="22" xml:space="preserve"> </tspan>
            <tspan font-family="Roboto" font-size="24" fill="#7fb276" y="22" xml:space="preserve">Stereo Balance</tspan>
          </text>
        </g>
        <g id="Group_793">
          <title>Audio</title>
          <g id="Graphic_795">
            <ellipse cx="-1549.0532" cy="320.9375" rx="11.6606870130669" ry="11.8125188752162" fill="black"/>
            <ellipse cx="-1549.0532" cy="320.9375" rx="11.6606870130669" ry="11.8125188752162" stroke="#cd79cb" stroke-linecap="round" stroke-linejoin="round" stroke-width="3"/>
          </g>
          <g id="Graphic_794">
            <path d="M -1534.4574 314.3125 L -1527.7942 320.9375 L -1534.4574 327.5625 Z" fill="#ce78ca"/>
            <path d="M -1534.4574 314.3125 L -1527.7942 320.9375 L -1534.4574 327.5625 Z" stroke="black" stroke-linecap="round" stroke-linejoin="round" stroke-width="0"/>
          </g>
        </g>
        <g id="Graphic_792">
          <text transform="translate(-1632.5532 306.9375)" fill="white">
            <tspan font-family="Roboto" font-size="24" fill="white" x="0" y="22" xml:space="preserve">Out L</tspan>
          </text>
        </g>
        <g id="Graphic_791">
          <text transform="translate(-1876.3736 306.9375)" fill="white">
            <tspan font-family="Roboto" font-size="24" fill="white" x="0" y="22" xml:space="preserve">In L</tspan>
          </text>
        </g>
        <g id="Group_788">
          <title>Audio</title>
          <g id="Graphic_790">
            <ellipse cx="-1906.8572" cy="320.9375" rx="11.660687013067" ry="11.8125188752162" fill="black"/>
            <ellipse cx="-1906.8572" cy="320.9375" rx="11.660687013067" ry="11.8125188752162" stroke="#cd79cb" stroke-linecap="round" stroke-linejoin="round" stroke-width="3"/>
          </g>
          <g id="Graphic_789">
            <path d="M -1892.2614 314.3125 L -1885.5982 320.9375 L -1892.2614 327.5625 Z" fill="#ce78ca"/>
            <path d="M -1892.2614 314.3125 L -1885.5982 320.9375 L -1892.2614 327.5625 Z" stroke="black" stroke-linecap="round" stroke-linejoin="round" stroke-width="0"/>
          </g>
        </g>
        <g id="Graphic_787">
          <text transform="translate(-1876.3795 360.9375)" fill="white">
            <tspan font-family="Roboto" font-size="24" fill="white" x="0" y="22" xml:space="preserve">In R</tspan>
          </text>
        </g>
        <g id="Group_784">
          <title>Audio</title>
          <g id="Graphic_786">
            <ellipse cx="-1906.8572" cy="374.9375" rx="11.660687013067" ry="11.8125188752162" fill="black"/>
            <ellipse cx="-1906.8572" cy="374.9375" rx="11.660687013067" ry="11.8125188752162" stroke="#cd79cb" stroke-linecap="round" stroke-linejoin="round" stroke-width="3"/>
          </g>
          <g id="Graphic_785">
            <path d="M -1892.2614 368.3125 L -1885.5982 374.9375 L -1892.2614 381.5625 Z" fill="#ce78ca"/>
            <path d="M -1892.2614 368.3125 L -1885.5982 374.9375 L -1892.2614 381.5625 Z" stroke="black" stroke-linecap="round" stroke-linejoin="round" stroke-width="0"/>
          </g>
        </g>
        <g id="Group_781">
          <title>Audio</title>
          <g id="Graphic_783">
            <ellipse cx="-1549.0532" cy="369.5625" rx="11.6606870130669" ry="11.8125188752162" fill="black"/>
            <ellipse cx="-1549.0532" cy="369.5625" rx="11.6606870130669" ry="11.8125188752162" stroke="#cd79cb" stroke-linecap="round" stroke-linejoin="round" stroke-width="3"/>
          </g>
          <g id="Graphic_782">
            <path d="M -1534.4574 362.9375 L -1527.7942 369.5625 L -1534.4574 376.1875 Z" fill="#ce78ca"/>
            <path d="M -1534.4574 362.9375 L -1527.7942 369.5625 L -1534.4574 376.1875 Z" stroke="black" stroke-linecap="round" stroke-linejoin="round" stroke-width="0"/>
          </g>
        </g>
        <g id="Graphic_780">
          <text transform="translate(-1632.5591 355.5625)" fill="white">
            <tspan font-family="Roboto" font-size="24" fill="white" x="0" y="22" xml:space="preserve">Out R</tspan>
          </text>
        </g>
        <g id="Group_777">
          <title>Float</title>
          <g id="Graphic_779">
            <ellipse cx="-1906.8572" cy="431.1875" rx="11.660687013067" ry="11.8125188752162" fill="black"/>
            <ellipse cx="-1906.8572" cy="431.1875" rx="11.660687013067" ry="11.8125188752162" stroke="#9df945" stroke-linecap="round" stroke-linejoin="round" stroke-width="3"/>
          </g>
          <g id="Graphic_778">
            <path d="M -1892.2614 424.5625 L -1885.5982 431.1875 L -1892.2614 437.8125 Z" fill="#9df945"/>
            <path d="M -1892.2614 424.5625 L -1885.5982 431.1875 L -1892.2614 437.8125 Z" stroke="#9df945" stroke-linecap="round" stroke-linejoin="round" stroke-width="0"/>
          </g>
        </g>
        <g id="Graphic_776">
          <text transform="translate(-1873.1913 417.1875)" fill="white">
            <tspan font-family="Roboto" font-size="24" fill="white" x="0" y="22" xml:space="preserve">Balance</tspan>
          </text>
        </g>
        <g id="Graphic_775">
          <path d="M -1774.9381 414.3125 L -1735.406 414.3125 C -1733.7492 414.3125 -1732.406 415.65565 -1732.406 417.3125 L -1732.406 445.0625 C -1732.406 446.71935 -1733.7492 448.0625 -1735.406 448.0625 L -1774.9381 448.0625 C -1776.595 448.0625 -1777.9381 446.71935 -1777.9381 445.0625 L -1777.9381 417.3125 C -1777.9381 415.65565 -1776.595 414.3125 -1774.9381 414.3125 Z" fill="black"/>
          <path d="M -1774.9381 414.3125 L -1735.406 414.3125 C -1733.7492 414.3125 -1732.406 415.65565 -1732.406 417.3125 L -1732.406 445.0625 C -1732.406 446.71935 -1733.7492 448.0625 -1735.406 448.0625 L -1774.9381 448.0625 C -1776.595 448.0625 -1777.9381 446.71935 -1777.9381 445.0625 L -1777.9381 417.3125 C -1777.9381 415.65565 -1776.595 414.3125 -1774.9381 414.3125 Z" stroke="#d7d5d5" stroke-linecap="round" stroke-linejoin="round" stroke-width="2"/>
          <text transform="translate(-1772.9381 417.1875)" fill="#bfbebf">
            <tspan font-family="Roboto" font-size="24" fill="#bfbebf" x="1.1313019" y="22" xml:space="preserve">0.0</tspan>
          </text>
        </g>
      </g>
    </g>
  </g>
</svg>
